<svg version="1.1" id="Layer_1" xmlns="http://www.w3.org/2000/svg" xmlns:xlink="http://www.w3.org/1999/xlink" x="0px" y="0px"
	 width="100%" viewBox="0 0 263 71" enable-background="new 0 0 263 71" xml:space="preserve">
<path fill="#FEFEFE" opacity="1.000000" stroke="none" 
	d="
M220.000000,72.000000 
	C146.666687,72.000000 73.833374,72.000000 1.000049,72.000000 
	C1.000033,48.333363 1.000033,24.666725 1.000016,1.000065 
	C88.666618,1.000043 176.333237,1.000043 263.999878,1.000022 
	C263.999939,24.666605 263.999939,48.333210 263.999969,71.999908 
	C249.500000,72.000000 235.000000,72.000000 220.000000,72.000000 
M125.000801,23.770407 
	C125.118950,24.266508 125.237091,24.762609 125.307129,25.157431 
	C125.307129,25.157431 125.336845,25.249866 124.563416,25.094301 
	C122.939690,23.863222 121.432236,22.410679 119.652664,21.476463 
	C118.400360,20.819042 116.778053,20.866442 115.261627,20.543175 
	C115.261627,20.543175 115.235962,20.465761 115.598625,19.700546 
	C113.516296,19.134808 111.425461,18.118288 109.354538,18.157351 
	C107.905991,18.184673 106.484657,19.654936 105.051178,20.480730 
	C105.831520,21.667553 106.611862,22.854376 107.779228,24.613136 
	C107.934319,25.045631 108.089409,25.478125 107.456902,25.942799 
	C105.797447,25.817221 104.137993,25.691641 101.685707,25.506062 
	C103.147041,27.349548 104.101639,28.553774 105.118446,29.836483 
	C104.239548,30.070667 103.769958,30.195789 102.637512,30.480293 
	C101.749298,30.373558 100.861076,30.266823 99.872047,29.665648 
	C99.631264,29.440485 99.390480,29.215321 98.997597,28.184937 
	C98.321541,26.692057 97.645485,25.199175 96.462067,23.274029 
	C94.984673,23.417885 93.507271,23.561743 91.272949,23.840816 
	C90.509209,23.789946 89.745468,23.739075 88.781487,23.412777 
	C88.523605,23.536304 88.265732,23.659834 87.411003,24.158083 
	C86.763428,26.449564 86.053757,28.726192 85.500237,31.040171 
	C85.292267,31.909542 85.299652,32.893078 85.464600,33.776836 
	C85.897072,36.093906 86.859863,38.375053 86.917107,40.687702 
	C87.117889,48.798100 92.429558,52.268101 100.681419,49.035648 
	C101.351906,48.575256 102.022400,48.114864 102.692886,47.654472 
	C101.795555,47.102169 100.898232,46.549862 99.568512,45.512806 
	C99.428268,44.683365 99.288025,43.853924 99.805542,42.884087 
	C99.586746,41.581116 99.367950,40.278141 98.996658,38.325840 
	C99.042305,37.886105 99.087952,37.446369 99.664330,36.713406 
	C100.116531,35.848881 100.568726,34.984356 101.554611,33.938671 
	C101.926773,33.901226 102.298935,33.863785 103.346764,34.123627 
	C104.517075,34.425678 105.687393,34.727730 107.151291,35.112965 
	C107.151291,35.112965 107.453728,35.072437 107.606346,35.973198 
	C107.524620,39.631142 107.442902,43.289089 106.716438,46.981045 
	C105.985146,47.980301 105.253853,48.979553 104.522568,49.978813 
	C105.680962,50.317104 106.839355,50.655399 108.900223,51.007793 
	C112.154984,50.951012 115.409737,50.894230 119.410484,51.156994 
	C121.327927,50.998753 123.245377,50.840511 125.793304,50.757462 
	C126.197441,50.883327 126.601570,51.009190 127.456230,51.596012 
	C128.636230,51.443279 129.816238,51.290550 131.743286,51.010609 
	C132.497604,51.051781 133.251907,51.092957 134.439880,51.587353 
	C135.456421,51.518051 136.472961,51.448746 137.489502,51.379444 
	C137.240356,50.909660 136.991226,50.439873 136.526703,49.149868 
	C136.614578,44.566895 136.702469,39.983925 136.983383,34.876587 
	C137.000763,34.691143 137.018127,34.505703 137.853363,34.048592 
	C139.177078,32.883919 140.500809,31.719248 141.715271,30.073488 
	C141.465668,29.367910 141.216064,28.662334 140.966461,27.956757 
	C141.216248,27.766052 141.466049,27.575348 141.715851,27.384644 
	C143.356995,28.908110 144.998123,30.431576 146.862930,32.861958 
	C146.966049,36.899384 147.069153,40.936806 146.954681,45.488827 
	C147.017349,45.664207 147.080032,45.839584 146.929688,46.795433 
	C147.288483,48.248985 147.647278,49.702541 148.316406,51.549358 
	C148.876694,51.416336 149.436981,51.283314 150.499191,51.035545 
	C150.667114,51.071091 150.835022,51.106632 151.396729,51.579082 
	C152.263367,51.438435 153.130020,51.297787 154.659241,51.034355 
	C155.105331,51.072052 155.551407,51.109749 156.190369,51.441265 
	C156.460068,51.341259 156.729752,51.241249 157.484146,50.933060 
	C157.767471,50.331020 158.050797,49.728985 159.041351,48.845963 
	C160.159195,46.261917 161.946991,45.579842 164.755539,47.085419 
	C164.955856,47.211914 165.084824,47.390049 165.007965,48.286640 
	C164.641174,49.097881 164.274384,49.909126 163.338394,51.979271 
	C166.294952,51.441231 168.432297,51.052277 171.194595,50.659809 
	C171.797333,50.817257 172.400085,50.974705 173.371201,51.576313 
	C174.239517,51.495598 175.107819,51.414883 176.655151,51.219292 
	C177.111420,51.251839 177.567703,51.284386 178.517776,51.731075 
	C179.678085,51.496059 180.838379,51.261047 182.299393,50.804928 
	C182.299393,50.804928 182.669662,50.852055 183.339767,50.944248 
	C183.892700,50.632088 184.445633,50.319927 185.200287,49.481091 
	C185.237289,48.923889 185.274277,48.366688 186.154892,47.920776 
	C187.927505,48.696526 189.700134,49.472275 191.649139,50.325222 
	C191.873047,49.556801 192.089630,48.813507 192.761795,48.241753 
	C192.761795,48.241753 192.992157,48.670574 193.328445,49.310333 
	C193.773102,49.445686 194.217743,49.581039 195.373489,49.794743 
	C197.249435,50.271454 199.125366,50.748165 201.176987,51.516235 
	C201.447754,51.443268 201.718521,51.370300 202.820206,51.186707 
	C204.214783,51.204529 205.609375,51.222355 207.206238,51.517494 
	C207.470810,51.400105 207.735367,51.282719 208.545364,50.944557 
	C209.032196,50.713646 209.519043,50.482731 210.253632,50.539227 
	C210.496384,50.349197 210.739136,50.159168 211.003326,49.996490 
	C211.003326,49.996490 210.972672,49.982704 211.651474,49.911472 
	C212.767395,48.607925 213.883316,47.304382 215.000000,46.000000 
	C215.000000,46.000000 215.000839,45.999115 215.669662,45.932957 
	C216.799133,44.943027 217.928604,43.953098 219.262299,43.426849 
	C219.532028,43.612518 219.801743,43.798187 220.172379,44.484398 
	C220.136963,44.650875 220.101562,44.817356 219.515030,45.435196 
	C219.703339,46.949516 219.891663,48.463837 220.330536,50.364342 
	C220.531387,50.599258 220.759964,50.803078 221.143036,51.319298 
	C221.432861,51.236641 221.722672,51.153984 222.896896,50.985645 
	C225.745819,50.985645 228.594742,50.985645 231.390793,50.985645 
	C231.213333,47.966553 230.828537,46.043461 231.059174,44.197243 
	C231.360794,41.782803 232.148987,39.429146 232.727859,37.049343 
	C234.478287,38.260948 236.228714,39.472553 238.197983,40.835640 
	C238.583679,40.660225 239.274811,40.246094 240.022919,40.023144 
	C243.048630,39.121407 245.618393,37.871937 244.342285,33.985302 
	C243.100494,30.203226 240.242813,29.787308 236.810181,30.502766 
	C235.239838,30.830067 233.599915,30.823587 231.730331,30.523071 
	C231.165070,30.616976 230.599823,30.710880 229.127335,30.681892 
	C226.385712,30.643385 223.644104,30.604876 220.381760,30.236370 
	C219.952393,31.795223 219.523041,33.354076 218.819534,35.491554 
	C219.200577,36.329559 219.581604,37.167568 220.169495,38.656361 
	C220.111099,39.103466 220.052704,39.550571 219.322525,39.987457 
	C218.430222,40.021427 217.537903,40.055393 216.338455,39.429909 
	C216.297379,38.950359 216.256287,38.470806 216.507294,37.743515 
	C216.305908,37.496944 216.104523,37.250374 215.419144,36.538570 
	C212.664780,31.640694 208.283676,30.272583 202.888016,30.108656 
	C200.452637,25.348808 196.777084,29.833818 193.664917,28.979185 
	C190.432465,28.091522 188.853424,31.704565 190.535950,35.734680 
	C190.535950,35.734680 190.144394,36.025089 189.467209,35.959354 
	C188.622162,35.648445 187.777115,35.337532 186.573273,34.929043 
	C186.573273,34.929043 186.201950,34.909657 186.182480,34.301754 
	C185.813202,33.857220 185.443924,33.412685 184.730637,32.339886 
	C183.159622,31.875338 181.588608,31.410793 179.555695,30.480398 
	C178.700241,30.414066 177.844772,30.347734 176.277435,30.076620 
	C175.049973,30.153923 173.822495,30.231226 171.999496,30.209085 
	C171.666611,30.412941 171.333740,30.616796 170.344055,31.071577 
	C169.248550,31.457567 168.153030,31.843557 167.013824,31.494434 
	C166.671738,30.818539 166.329651,30.142643 165.342026,28.191299 
	C165.169479,31.121553 165.084763,32.560123 165.000000,34.000000 
	C165.000000,34.000000 164.998734,33.999989 164.224594,33.980438 
	C162.683899,34.181759 161.143188,34.383083 159.728851,34.567894 
	C159.128448,33.217606 158.626465,32.088661 157.424164,30.730558 
	C156.946838,30.773855 156.469528,30.817152 155.261414,30.657866 
	C154.511322,30.726398 153.761246,30.794931 152.358398,30.582161 
	C151.901031,30.683567 151.443680,30.784973 150.082535,30.661022 
	C149.152237,30.636421 148.221954,30.611822 147.091476,29.991022 
	C147.817307,28.951946 148.543121,27.912870 149.672165,26.870377 
	C149.672165,26.870377 150.005325,27.097485 150.482925,27.603277 
	C151.986786,27.438688 153.490662,27.274101 155.367035,26.880018 
	C155.367035,26.880018 155.803436,26.911125 156.495178,26.950823 
	C156.997696,26.302999 157.500229,25.655176 158.067398,24.247324 
	C158.161697,23.491594 158.256012,22.735865 158.607697,21.734806 
	C158.427948,21.489006 158.248184,21.243206 157.624847,20.466282 
	C154.716324,20.182781 151.807785,19.899279 148.119553,19.921837 
	C147.532700,20.053591 146.589127,20.484610 146.411560,20.272978 
	C142.743042,15.900245 137.843811,16.787264 132.488007,17.000525 
	C131.994476,17.289812 131.500961,17.579102 130.731903,18.130667 
	C130.731903,18.130667 130.351746,18.144770 129.783951,18.214491 
	C129.524597,18.481789 129.265228,18.749088 128.704758,19.521368 
	C127.927887,20.395092 127.151016,21.268816 125.803482,22.209986 
	C125.536591,22.473328 125.269691,22.736670 125.000801,23.770407 
M71.132484,32.046791 
	C71.132484,32.046791 71.187485,32.271717 70.655510,32.035683 
	C70.274223,31.988348 69.892944,31.941011 69.021057,31.337492 
	C68.352722,31.179663 67.684387,31.021833 66.196739,30.642893 
	C64.791458,30.712154 63.386181,30.781416 61.217415,30.562685 
	C60.541115,31.382973 59.864815,32.203259 58.993439,33.917694 
	C58.930668,37.271873 58.867897,40.626057 58.470463,44.155350 
	C58.421673,44.270950 58.299339,44.433132 58.337627,44.493584 
	C58.461571,44.689293 58.644482,44.847649 58.948181,45.759525 
	C59.043797,46.500626 59.139416,47.241730 58.939907,48.461243 
	C58.872429,48.636044 58.804955,48.810841 58.330055,49.351707 
	C58.620266,49.865715 58.910473,50.379719 60.082882,50.973881 
	C63.485466,50.660515 66.888054,50.347145 70.621666,49.851704 
	C70.506767,49.554832 70.391869,49.257961 70.191139,48.320740 
	C70.246536,47.893799 70.301933,47.466858 70.676102,46.828751 
	C70.552406,46.523140 70.428711,46.217529 69.995461,45.796635 
	C69.995461,45.796635 69.800667,46.063404 70.036522,45.221649 
	C69.957657,43.487286 69.878792,41.752918 70.089729,39.415836 
	C70.182167,38.980492 70.274605,38.545151 71.101509,38.048180 
	C72.081154,38.026009 73.060806,38.003834 74.449333,38.291348 
	C74.601288,38.594643 74.753235,38.897934 75.072533,39.924740 
	C77.730270,41.853874 80.049324,41.806072 82.202438,38.139088 
	C84.064590,31.792406 83.656540,31.147665 77.527084,30.980368 
	C76.084892,30.941006 74.638145,31.067886 72.530327,31.047785 
	C72.087120,31.457039 71.643913,31.866291 71.132484,32.046791 
M131.893295,13.721626 
	C131.807037,13.671545 131.720764,13.621463 131.634506,13.571382 
	C131.757248,13.713542 131.879974,13.855703 131.821960,14.508795 
	C132.549652,14.746969 133.277344,14.985143 134.005035,15.223317 
	C134.076202,14.869388 134.147354,14.515459 134.218521,14.161530 
	C133.478317,14.108603 132.738098,14.055677 131.893295,13.721626 
M52.180496,41.074524 
	C58.105412,39.717857 52.645527,36.765762 54.228828,35.799023 
	C52.742283,36.565914 51.255737,37.332806 49.148201,37.736977 
	C46.841705,32.830894 44.658104,27.860355 42.142376,23.064016 
	C41.512726,21.863556 39.883400,20.588646 38.594360,20.449167 
	C35.216000,20.083611 31.771870,20.325829 28.232901,20.325829 
	C30.952448,30.119162 30.935917,30.111055 27.759995,36.587654 
	C26.067348,40.039436 24.443439,43.524925 22.420300,47.211155 
	C22.184202,47.393276 22.035463,47.630238 21.786852,48.435829 
	C21.750219,48.614388 21.713587,48.792950 21.043058,49.128189 
	C21.231588,49.977676 21.484179,51.574791 21.599073,51.564945 
	C23.436861,51.407475 25.719776,51.625004 26.988811,50.612942 
	C30.002581,48.209450 37.722351,46.900204 40.289696,49.735172 
	C43.454762,53.230179 46.583950,52.008575 50.658661,51.032524 
	C51.104839,51.076813 51.551014,51.121098 52.192474,51.453537 
	C52.462124,51.351685 52.731773,51.249832 53.650150,51.017815 
	C54.305065,50.936321 54.959980,50.854832 56.042393,50.812344 
	C56.147816,50.718925 56.253239,50.625507 56.358658,50.532089 
	C56.136837,50.407349 55.915016,50.282608 55.284775,49.683651 
	C54.807232,48.536179 54.329693,47.388702 53.900894,45.553387 
	C53.469723,45.104507 53.038555,44.655632 52.106682,43.745770 
	C51.850208,42.877945 51.593735,42.010120 52.180496,41.074524 
M141.406952,35.482323 
	C141.406952,35.482323 141.522491,35.412506 141.406952,35.482323 
M56.573307,45.512562 
	C56.573307,45.512562 56.490860,45.555138 56.573307,45.512562 
z"/>
<path fill="#282364" opacity="1.000000" stroke="none" 
	d="
M21.676954,48.971516 
	C21.713587,48.792950 21.750219,48.614388 22.138439,48.156731 
	C22.589518,47.583488 22.689013,47.289345 22.788506,46.995201 
	C24.443439,43.524925 26.067348,40.039436 27.759995,36.587654 
	C30.935917,30.111055 30.952448,30.119162 28.232901,20.325829 
	C31.771870,20.325829 35.216000,20.083611 38.594360,20.449167 
	C39.883400,20.588646 41.512726,21.863556 42.142376,23.064016 
	C44.658104,27.860355 46.841705,32.830894 49.528564,38.200966 
	C50.385044,39.490734 50.861156,40.316513 51.337265,41.142296 
	C51.593735,42.010120 51.850208,42.877945 52.408119,44.288692 
	C53.090420,45.301487 53.471287,45.771358 53.852150,46.241230 
	C54.329693,47.388702 54.807232,48.536179 55.402275,50.066071 
	C55.519772,50.448490 55.614895,50.773342 55.614895,50.773342 
	C54.959980,50.854832 54.305065,50.936321 53.073486,51.014595 
	C52.330276,51.062710 52.163734,51.114048 51.997192,51.165386 
	C51.551014,51.121098 51.104839,51.076813 49.926071,51.015617 
	C47.316540,50.613132 44.491611,50.865738 43.727650,49.730904 
	C40.512230,44.954575 35.875317,45.892441 31.491999,46.083813 
	C29.726273,46.160908 27.126822,46.923088 26.451437,48.194199 
	C24.907427,51.100094 23.547222,50.463402 21.676954,48.971516 
M31.554226,37.122963 
	C31.338511,38.537655 31.122797,39.952351 30.907082,41.367039 
	C33.000626,41.579681 35.094173,41.792320 38.269463,42.114834 
	C36.687428,38.554878 35.676285,36.279560 34.314980,33.216297 
	C33.216942,34.806442 32.619232,35.672031 31.554226,37.122963 
z"/>
<path fill="#2B2666" opacity="1.000000" stroke="none" 
	d="
M201.001312,51.224876 
	C199.125366,50.748165 197.249435,50.271454 194.810791,49.481125 
	C193.829453,49.001862 193.410812,48.836216 192.992157,48.670574 
	C192.992157,48.670574 192.761795,48.241753 192.423798,47.861774 
	C188.866989,44.098686 188.875610,40.168659 190.144394,36.025089 
	C190.144394,36.025089 190.535950,35.734680 190.867599,35.349052 
	C192.839142,33.853481 194.479019,32.743534 196.406616,31.568138 
	C196.795349,31.333899 196.896362,31.165106 197.429092,30.958941 
	C199.579941,30.888866 201.299072,30.856167 203.018188,30.823467 
	C208.283676,30.272583 212.664780,31.640694 215.651978,37.045612 
	C215.994934,37.698853 216.105072,37.845055 216.215210,37.991253 
	C216.256287,38.470806 216.297379,38.950359 216.084198,39.711216 
	C214.221344,40.651016 212.612762,41.309509 210.664047,41.932526 
	C209.879272,41.990269 209.434631,42.083488 208.587173,42.106602 
	C205.853821,42.391899 203.523300,42.747307 201.192764,43.102711 
	C201.051880,43.714226 200.911011,44.325741 200.770142,44.937252 
	C202.936050,45.868237 205.132706,46.735126 207.256454,47.753979 
	C208.553162,48.376064 209.737732,49.231869 210.972672,49.982704 
	C210.972672,49.982704 211.003326,49.996490 210.749802,50.057617 
	C210.332825,50.163101 210.169357,50.207458 210.005875,50.251820 
	C209.519043,50.482731 209.032196,50.713646 208.017853,50.996479 
	C207.328232,51.112324 207.166092,51.176250 207.003952,51.240177 
	C205.609375,51.222355 204.214783,51.204529 202.163330,51.148170 
	C201.338058,51.148052 201.169693,51.186466 201.001312,51.224876 
M202.198807,39.379864 
	C203.612854,39.159439 205.026917,38.939011 206.440964,38.718582 
	C206.709412,38.299099 206.977844,37.879616 207.246277,37.460129 
	C205.761017,36.346104 204.275742,35.232079 202.790497,34.118053 
	C202.339691,35.856411 201.888885,37.594769 202.198807,39.379864 
z"/>
<path fill="#282464" opacity="1.000000" stroke="none" 
	d="
M99.133598,37.006634 
	C99.087952,37.446369 99.042305,37.886105 98.954941,39.045349 
	C98.991417,40.851402 99.069595,41.937943 99.147781,43.024487 
	C99.288025,43.853924 99.428268,44.683365 99.722046,46.127289 
	C99.906685,47.489899 99.937790,48.238022 99.968895,48.986149 
	C92.429558,52.268101 87.117889,48.798100 86.917107,40.687702 
	C86.859863,38.375053 85.897072,36.093906 85.464600,33.776836 
	C85.299652,32.893078 85.292267,31.909542 85.500237,31.040171 
	C86.053757,28.726192 86.763428,26.449564 87.960785,24.027718 
	C88.667618,23.827637 88.824677,23.757919 88.981728,23.688202 
	C89.745468,23.739075 90.509209,23.789946 92.054832,23.873047 
	C94.214287,23.838947 95.591858,23.772619 96.969421,23.706295 
	C97.645485,25.199175 98.321541,26.692057 99.005737,28.892555 
	C99.333542,29.786812 99.653198,29.973448 99.972862,30.160084 
	C100.861076,30.266823 101.749298,30.373558 103.049477,30.700104 
	C103.197990,31.888721 102.934540,32.857533 102.671097,33.826340 
	C102.298935,33.863785 101.926773,33.901226 100.905151,33.963486 
	C99.881668,34.994408 99.507629,36.000523 99.133598,37.006634 
z"/>
<path fill="#2A2667" opacity="1.000000" stroke="none" 
	d="
M136.790359,35.400951 
	C136.702469,39.983925 136.614578,44.566895 136.320328,49.766933 
	C135.411377,50.634041 134.708801,50.884087 134.006226,51.134132 
	C133.251907,51.092957 132.497604,51.051781 130.976089,50.988670 
	C129.141159,51.022839 128.073441,51.078949 127.005707,51.135056 
	C126.601570,51.009190 126.197441,50.883327 125.501541,50.431351 
	C125.103149,49.734955 124.996521,49.364674 125.016731,48.752686 
	C125.076569,48.341782 125.009567,48.172585 125.044312,47.551834 
	C125.086678,43.399181 125.027313,39.698086 125.076859,35.688202 
	C124.784409,34.985573 124.383041,34.591732 123.705215,33.941772 
	C123.532265,32.531246 123.635773,31.376844 123.811920,30.278122 
	C123.884560,30.333801 124.051346,30.258396 124.367462,30.195118 
	C124.771660,29.750628 124.859749,29.369419 125.029633,28.660797 
	C125.047470,27.891878 124.983513,27.450373 125.106216,26.749954 
	C125.307533,26.077318 125.322189,25.663593 125.336845,25.249866 
	C125.336845,25.249866 125.307129,25.157431 125.525795,25.033308 
	C125.907936,24.602640 126.071411,24.296093 126.585373,23.979980 
	C128.077576,23.489939 129.219284,23.009460 130.951935,22.280285 
	C130.825623,24.976860 130.718170,27.270868 130.610733,29.564878 
	C131.017365,29.616373 131.424011,29.667868 131.830643,29.719362 
	C132.013016,28.712452 131.980209,27.594917 132.427780,26.724358 
	C133.112122,25.393293 134.127945,24.232662 135.266632,22.999832 
	C135.705887,22.997293 135.881577,22.994596 136.180939,23.414936 
	C136.304581,26.017372 136.304581,28.196774 136.304581,30.554577 
	C138.662262,30.554577 140.243393,30.554577 141.824524,30.554577 
	C140.500809,31.719248 139.177078,32.883919 137.239746,34.200310 
	C136.558197,34.471790 136.409470,34.617252 136.437836,34.706367 
	C136.515518,34.950569 136.667679,35.171070 136.790359,35.400951 
z"/>
<path fill="#2C2967" opacity="1.000000" stroke="none" 
	d="
M220.066147,44.983833 
	C220.101562,44.817356 220.136963,44.650875 220.276825,44.011772 
	C220.297958,42.682198 220.214615,41.825253 220.191910,40.712257 
	C220.166458,40.303364 220.080368,40.150517 219.994293,39.997673 
	C220.052704,39.550571 220.111099,39.103466 220.190430,37.971680 
	C220.169312,36.531322 220.127289,35.775650 220.238312,34.785698 
	C220.561737,33.223068 220.732101,31.894718 220.902466,30.566368 
	C223.644104,30.604876 226.385712,30.643385 229.685120,30.991888 
	C230.825790,31.190750 231.408661,31.079617 231.991547,30.968483 
	C233.599915,30.823587 235.239838,30.830067 236.810181,30.502766 
	C240.242813,29.787308 243.100494,30.203226 244.342285,33.985302 
	C245.618393,37.871937 243.048630,39.121407 240.022919,40.023144 
	C239.274811,40.246094 238.583679,40.660225 238.197983,40.835640 
	C236.228714,39.472553 234.478287,38.260948 232.727844,37.049339 
	C232.148987,39.429146 231.360794,41.782803 231.059174,44.197243 
	C230.828537,46.043461 231.213333,47.966553 231.390793,50.985645 
	C228.594742,50.985645 225.745819,50.985645 222.212280,50.935707 
	C221.357193,50.915779 221.186722,50.945786 221.016266,50.975796 
	C220.759964,50.803078 220.531387,50.599258 220.341476,49.867874 
	C220.256989,47.908882 220.161560,46.446358 220.066147,44.983833 
z"/>
<path fill="#282363" opacity="1.000000" stroke="none" 
	d="
M185.311279,47.809486 
	C185.274277,48.366688 185.237289,48.923889 184.774933,49.745193 
	C183.789612,50.290215 183.229645,50.571133 182.669662,50.852055 
	C182.669662,50.852055 182.299393,50.804928 181.749603,50.870605 
	C180.141205,51.063168 179.082581,51.190052 178.023972,51.316933 
	C177.567703,51.284386 177.111420,51.251839 175.954865,51.167702 
	C174.503998,51.121456 173.753418,51.126804 173.002823,51.132153 
	C172.400085,50.974705 171.797333,50.817257 170.620209,50.429287 
	C168.411346,49.339115 166.776886,48.479469 165.142426,47.619823 
	C165.084824,47.390049 164.955856,47.211914 164.478287,46.614059 
	C161.675430,41.911747 162.579178,37.906078 164.998734,33.999989 
	C164.998734,33.999989 165.000000,34.000000 165.271393,33.923489 
	C166.047699,33.307835 166.552612,32.768692 167.057526,32.229546 
	C168.153030,31.843557 169.248550,31.457567 170.920959,31.011328 
	C171.666702,30.980040 171.835526,31.008999 172.223267,31.280891 
	C173.957901,31.109688 175.473602,30.695545 176.989319,30.281403 
	C177.844772,30.347734 178.700241,30.414066 180.008499,30.974091 
	C181.999084,31.967905 183.536865,32.468025 185.074646,32.968147 
	C185.443924,33.412685 185.813202,33.857220 185.882401,34.841854 
	C185.448914,36.390549 185.315506,37.399147 185.132141,38.593903 
	C184.942993,39.021767 184.734909,39.159111 184.046143,39.140335 
	C182.807266,39.039242 181.980194,38.989914 180.866577,38.753922 
	C179.697922,37.361656 179.015640,35.875805 177.860947,35.052444 
	C177.133667,34.533852 174.787537,34.794151 174.723419,35.068592 
	C174.110916,37.689789 172.750549,40.930889 173.748047,42.918430 
	C174.825394,45.065098 178.087875,46.293724 180.610062,47.464005 
	C181.943481,48.082706 183.729568,47.725883 185.311279,47.809486 
z"/>
<path fill="#272465" opacity="1.000000" stroke="none" 
	d="
M118.664497,50.837448 
	C115.409737,50.894230 112.154984,50.951012 108.371094,50.589897 
	C107.855179,49.614532 107.868385,49.057072 108.044037,48.621307 
	C108.318489,48.669662 108.430496,48.596321 108.542511,48.522980 
	C108.432190,48.447002 108.321175,48.310684 108.211731,48.311935 
	C108.101143,48.313198 107.992096,48.450768 107.782578,48.123177 
	C107.575569,47.460831 107.468376,47.203934 107.361176,46.947033 
	C107.442902,43.289089 107.524620,39.631142 107.674812,35.207104 
	C107.647919,33.996838 107.552551,33.552662 107.568771,32.650887 
	C111.417717,31.857056 115.155075,31.520830 118.854279,31.639595 
	C118.765579,38.342209 118.715034,44.589828 118.664497,50.837448 
z"/>
<path fill="#EBEBF3" opacity="1.000000" stroke="none" 
	d="
M185.733093,47.865131 
	C183.729568,47.725883 181.943481,48.082706 180.610062,47.464005 
	C178.087875,46.293724 174.825394,45.065098 173.748047,42.918430 
	C172.750549,40.930889 174.110916,37.689789 174.723419,35.068592 
	C174.787537,34.794151 177.133667,34.533852 177.860947,35.052444 
	C179.015640,35.875805 179.697922,37.361656 181.014893,39.056625 
	C182.452499,39.428028 183.455215,39.310062 184.457947,39.192101 
	C184.734909,39.159111 184.942993,39.021767 185.429947,38.439140 
	C186.162491,37.074348 186.547287,36.050484 186.932068,35.026619 
	C187.777115,35.337532 188.622162,35.648445 189.805801,35.992222 
	C188.875610,40.168659 188.866989,44.098686 192.196014,47.776001 
	C192.089630,48.813507 191.873047,49.556801 191.649139,50.325222 
	C189.700134,49.472275 187.927505,48.696526 185.733093,47.865131 
z"/>
<path fill="#1E1A62" opacity="1.000000" stroke="none" 
	d="
M59.235031,47.982830 
	C59.139416,47.241730 59.043797,46.500626 58.994110,45.129959 
	C58.961735,44.327007 58.883434,44.153622 58.805130,43.980236 
	C58.867897,40.626057 58.930668,37.271873 59.437668,33.463470 
	C60.581566,32.289719 61.281231,31.570198 61.980900,30.850677 
	C63.386181,30.781416 64.791458,30.712154 66.639442,31.078514 
	C67.681374,32.049389 68.280594,32.584641 68.803307,33.397888 
	C68.301842,35.347820 67.876900,37.019756 67.354721,39.074284 
	C67.749794,39.226849 68.774864,39.622704 69.799927,40.018555 
	C69.878792,41.752918 69.957657,43.487286 69.613602,45.580170 
	C67.674789,46.722580 66.158905,47.506470 64.643028,48.290363 
	C64.780632,48.659573 64.918236,49.028778 65.055840,49.397987 
	C63.115570,48.926270 61.175301,48.454548 59.235031,47.982830 
z"/>
<path fill="#1E1B63" opacity="1.000000" stroke="none" 
	d="
M153.011154,30.863462 
	C153.761246,30.794931 154.511322,30.726398 155.746902,31.014040 
	C156.730972,31.589048 157.229553,31.807884 157.821228,32.345207 
	C157.863449,33.100540 157.812576,33.537384 157.537674,33.990807 
	C157.094254,34.176178 156.874863,34.344967 156.655457,34.513756 
	C157.030029,34.684925 157.404602,34.856094 157.860382,35.419914 
	C157.884933,36.875587 157.828262,37.938610 157.622070,39.092617 
	C157.573364,39.455330 157.674179,39.727062 157.859924,40.411545 
	C157.883713,42.221790 157.822586,43.619286 157.541290,45.194626 
	C156.890335,46.695362 156.459564,48.018253 155.908401,49.710888 
	C155.124695,48.646416 154.525879,47.833065 153.947601,46.682007 
	C152.986481,45.922222 152.004837,45.500145 150.682892,45.061615 
	C149.888397,45.039181 149.434204,45.033195 148.679199,45.004280 
	C147.976349,44.978981 147.574310,44.976604 147.172272,44.974228 
	C147.069153,40.936806 146.966049,36.899384 146.928070,32.215302 
	C147.092682,31.241505 147.192169,30.914364 147.291656,30.587223 
	C148.221954,30.611822 149.152237,30.636421 150.676514,31.016666 
	C151.850708,31.202694 152.430923,31.033079 153.011154,30.863462 
z"/>
<path fill="#EEEFF5" opacity="1.000000" stroke="none" 
	d="
M118.892441,31.184603 
	C115.155075,31.520830 111.417717,31.857056 107.417969,32.857063 
	C107.056297,34.023819 106.957001,34.526802 106.857704,35.029781 
	C105.687393,34.727730 104.517075,34.425678 103.008926,33.974983 
	C102.934540,32.857533 103.197990,31.888721 103.380905,30.620413 
	C103.769958,30.195789 104.239548,30.070667 105.118446,29.836483 
	C104.101639,28.553774 103.147041,27.349548 101.685707,25.506062 
	C104.137993,25.691641 105.797447,25.817221 108.231094,25.993706 
	C111.918793,25.844942 114.832298,25.645269 117.745804,25.445599 
	C116.937523,23.830112 116.129234,22.214624 115.320953,20.599133 
	C116.778053,20.866442 118.400360,20.819042 119.652664,21.476463 
	C121.432236,22.410679 122.939690,23.863222 124.950134,25.172085 
	C125.322189,25.663593 125.307533,26.077318 124.821533,26.791405 
	C124.230759,27.725597 124.111328,28.359430 124.000664,29.309834 
	C124.023399,29.837069 124.037376,30.047731 124.051346,30.258396 
	C124.051346,30.258396 123.884560,30.333801 123.365524,30.219336 
	C121.528473,30.464781 120.210457,30.824692 118.892441,31.184603 
M105.481133,27.588898 
	C105.481133,27.588898 105.412979,27.475857 105.481133,27.588898 
z"/>
<path fill="#F6F6FB" opacity="1.000000" stroke="none" 
	d="
M118.854279,31.639595 
	C120.210457,30.824692 121.528473,30.464781 123.292892,30.163656 
	C123.635773,31.376844 123.532265,32.531246 123.722382,34.216499 
	C124.333328,35.163895 124.650635,35.580441 124.967941,35.996990 
	C125.027313,39.698086 125.086678,43.399181 124.877701,47.631218 
	C124.547142,48.267193 124.406731,48.422169 124.436348,48.468563 
	C124.559647,48.661644 124.734169,48.822018 124.889893,48.994392 
	C124.996521,49.364674 125.103149,49.734955 125.186295,50.393753 
	C123.245377,50.840511 121.327927,50.998753 119.037491,50.997223 
	C118.715034,44.589828 118.765579,38.342209 118.854279,31.639595 
z"/>
<path fill="#34306A" opacity="1.000000" stroke="none" 
	d="
M69.944832,39.717194 
	C68.774864,39.622704 67.749794,39.226849 67.354721,39.074284 
	C67.876900,37.019756 68.301842,35.347820 68.901741,33.302605 
	C69.076691,32.929333 69.274452,32.739700 69.547676,32.787968 
	C70.276428,32.648064 70.731956,32.459892 71.187485,32.271721 
	C71.187485,32.271717 71.132484,32.046791 71.467613,32.134483 
	C72.266327,31.854212 72.729912,31.486250 73.193497,31.118288 
	C74.638145,31.067886 76.084892,30.941006 77.527084,30.980368 
	C83.656540,31.147665 84.064590,31.792406 81.611282,38.586838 
	C78.981812,39.090134 76.943504,39.145679 74.905190,39.201225 
	C74.753235,38.897934 74.601288,38.594643 74.178017,37.779541 
	C72.228020,35.451733 70.831459,34.821655 70.367043,38.109810 
	C70.274605,38.545151 70.182167,38.980492 69.944832,39.717194 
z"/>
<path fill="#332F68" opacity="1.000000" stroke="none" 
	d="
M136.057281,22.991901 
	C135.881577,22.994596 135.705887,22.997293 135.228867,22.631075 
	C134.175262,20.778763 133.422989,19.295364 132.776657,17.619228 
	C132.882599,17.426491 133.088211,17.037626 133.088211,17.037626 
	C137.843811,16.787264 142.743042,15.900245 146.411560,20.272978 
	C146.589127,20.484610 147.532700,20.053591 148.433243,20.111963 
	C148.160278,21.546635 147.573608,22.791182 146.640503,24.164785 
	C143.495209,27.473125 141.253815,27.020523 139.149902,23.438953 
	C138.663284,22.610582 137.694763,18.544136 136.057281,22.991901 
z"/>
<path fill="#EBEBF3" opacity="1.000000" stroke="none" 
	d="
M219.658417,39.992565 
	C220.080368,40.150517 220.166458,40.303364 219.932434,40.868027 
	C219.427582,41.840950 219.242828,42.402054 219.058075,42.963161 
	C217.928604,43.953098 216.799133,44.943027 215.361633,45.646633 
	C215.003738,44.640171 214.953903,43.920036 214.904053,43.199898 
	C214.359482,43.413731 213.814896,43.627560 213.270325,43.841389 
	C213.846619,44.561203 214.422928,45.281021 214.999237,46.000839 
	C213.883316,47.304382 212.767395,48.607925 211.312073,49.947090 
	C209.737732,49.231869 208.553162,48.376064 207.256454,47.753979 
	C205.132706,46.735126 202.936050,45.868237 200.770142,44.937252 
	C200.911011,44.325741 201.051880,43.714226 201.192764,43.102711 
	C203.523300,42.747307 205.853821,42.391899 208.429016,42.416824 
	C208.904404,43.796955 209.135132,44.796753 209.365845,45.796555 
	C209.911957,44.520370 210.458069,43.244186 211.004181,41.968002 
	C212.612762,41.309509 214.221344,40.651016 216.237762,40.040939 
	C217.537903,40.055393 218.430222,40.021427 219.658417,39.992565 
z"/>
<path fill="#2F2867" opacity="1.000000" stroke="none" 
	d="
M146.986954,24.035728 
	C147.573608,22.791182 148.160278,21.546635 148.823090,19.958933 
	C151.807785,19.899279 154.716324,20.182781 157.811768,21.007750 
	C158.115906,21.692858 158.233124,21.836496 158.350327,21.980137 
	C158.256012,22.735865 158.161697,23.491594 157.710281,24.695553 
	C156.836594,25.732895 156.320023,26.322012 155.803436,26.911127 
	C155.803436,26.911125 155.367035,26.880018 154.767578,26.940624 
	C152.780518,27.033316 151.392929,27.065401 150.005325,27.097485 
	C150.005325,27.097485 149.672165,26.870377 149.412277,26.543736 
	C148.430573,25.489973 147.708771,24.762852 146.986954,24.035728 
z"/>
<path fill="#E9E8F1" opacity="1.000000" stroke="none" 
	d="
M157.771591,39.001637 
	C157.828262,37.938610 157.884933,36.875587 157.956833,35.154945 
	C157.901932,34.322964 157.831802,34.148594 157.761688,33.974228 
	C157.812576,33.537384 157.863449,33.100540 157.954041,32.090984 
	C158.037338,31.332088 158.080917,31.145905 158.124481,30.959717 
	C158.626465,32.088661 159.128448,33.217606 159.728851,34.567894 
	C161.143188,34.383083 162.683899,34.181759 164.611664,33.990211 
	C162.579178,37.906078 161.675430,41.911747 164.327484,46.541073 
	C161.946991,45.579842 160.159195,46.261917 158.567261,48.659637 
	C157.982590,47.321136 157.872025,46.168961 157.761475,45.016785 
	C157.822586,43.619286 157.883713,42.221790 157.954041,40.161900 
	C157.899353,39.333549 157.835480,39.167595 157.771591,39.001637 
z"/>
<path fill="#E8E8F1" opacity="1.000000" stroke="none" 
	d="
M21.360006,49.049850 
	C23.547222,50.463402 24.907427,51.100094 26.451437,48.194199 
	C27.126822,46.923088 29.726273,46.160908 31.491999,46.083813 
	C35.875317,45.892441 40.512230,44.954575 43.727650,49.730904 
	C44.491611,50.865738 47.316540,50.613132 49.594826,51.079971 
	C46.583950,52.008575 43.454762,53.230179 40.289696,49.735172 
	C37.722351,46.900204 30.002581,48.209450 26.988811,50.612942 
	C25.719776,51.625004 23.436861,51.407475 21.599073,51.564945 
	C21.484179,51.574791 21.231588,49.977676 21.360006,49.049850 
z"/>
<path fill="#E9E8F1" opacity="1.000000" stroke="none" 
	d="
M146.640503,24.164787 
	C147.708771,24.762852 148.430573,25.489973 149.210663,26.545444 
	C148.543121,27.912870 147.817307,28.951946 147.191574,30.289124 
	C147.192169,30.914364 147.092682,31.241505 146.816223,31.761843 
	C144.998123,30.431576 143.356995,28.908110 141.715851,27.384644 
	C141.466049,27.575348 141.216248,27.766052 140.966461,27.956757 
	C141.216064,28.662334 141.465668,29.367910 141.769897,30.314034 
	C140.243393,30.554577 138.662262,30.554577 136.304581,30.554577 
	C136.304581,28.196774 136.304581,26.017372 136.180939,23.414936 
	C137.694763,18.544136 138.663284,22.610582 139.149902,23.438953 
	C141.253815,27.020523 143.495209,27.473125 146.640503,24.164787 
z"/>
<path fill="#1F1D5A" opacity="1.000000" stroke="none" 
	d="
M115.291290,20.571156 
	C116.129234,22.214624 116.937523,23.830112 117.745804,25.445599 
	C114.832298,25.645269 111.918793,25.844942 108.624893,25.977615 
	C108.089409,25.478125 107.934319,25.045631 107.699066,23.945190 
	C108.783539,18.616493 111.389389,17.860401 115.235962,20.465761 
	C115.235962,20.465761 115.261627,20.543175 115.291290,20.571156 
z"/>
<path fill="#EBEBF3" opacity="1.000000" stroke="none" 
	d="
M196.118896,31.633583 
	C194.479019,32.743534 192.839142,33.853481 190.925735,35.112339 
	C188.853424,31.704565 190.432465,28.091522 193.664917,28.979185 
	C196.777084,29.833818 200.452637,25.348808 202.953094,30.466061 
	C201.299072,30.856167 199.579941,30.888866 197.271759,30.811323 
	C196.494766,31.011913 196.306839,31.322746 196.118896,31.633583 
z"/>
<path fill="#343267" opacity="1.000000" stroke="none" 
	d="
M157.541290,45.194626 
	C157.872025,46.168961 157.982590,47.321136 158.213623,48.800133 
	C158.050797,49.728985 157.767471,50.331020 156.990845,50.960052 
	C156.330856,51.040512 156.164169,51.093979 155.997498,51.147446 
	C155.551407,51.109749 155.105331,51.072052 153.958878,51.006496 
	C152.506653,51.033146 151.754791,51.087658 151.002930,51.142170 
	C150.835022,51.106632 150.667114,51.071091 149.918625,51.019955 
	C148.894058,51.054943 148.450073,51.105518 148.006073,51.156094 
	C147.647278,49.702541 147.288483,48.248985 147.315582,46.384308 
	C148.127655,45.657856 148.553818,45.342529 148.979996,45.027206 
	C149.434204,45.033195 149.888397,45.039181 150.681732,45.385963 
	C151.989609,46.157749 152.958328,46.588730 153.927063,47.019714 
	C154.525879,47.833065 155.124695,48.646416 155.908401,49.710888 
	C156.459564,48.018253 156.890335,46.695362 157.541290,45.194626 
z"/>
<path fill="#201C5B" opacity="1.000000" stroke="none" 
	d="
M132.670715,17.811970 
	C133.422989,19.295364 134.175262,20.778763 134.965302,22.630920 
	C134.127945,24.232662 133.112122,25.393293 132.427780,26.724358 
	C131.980209,27.594917 132.013016,28.712452 131.830643,29.719362 
	C131.424011,29.667868 131.017365,29.616373 130.610733,29.564878 
	C130.718170,27.270868 130.825623,24.976860 130.951935,22.280285 
	C129.219284,23.009460 128.077576,23.489939 126.539581,23.732628 
	C126.106979,23.331106 126.070648,23.167376 126.201843,22.820951 
	C126.369370,22.638256 126.374146,22.142536 126.374146,22.142536 
	C127.151016,21.268816 127.927887,20.395092 129.147400,19.250092 
	C129.843933,18.700800 130.097839,18.422783 130.351746,18.144768 
	C130.351746,18.144770 130.731903,18.130667 131.147797,18.021637 
	C131.932693,17.879061 132.301712,17.845514 132.670715,17.811970 
z"/>
<path fill="#34306A" opacity="1.000000" stroke="none" 
	d="
M59.087471,48.222038 
	C61.175301,48.454548 63.115570,48.926270 65.055840,49.397987 
	C64.918236,49.028778 64.780632,48.659573 64.643028,48.290363 
	C66.158905,47.506470 67.674789,46.722580 69.495667,46.001045 
	C69.800667,46.063404 69.995461,45.796635 70.042015,46.141891 
	C70.178154,46.671402 70.267738,46.855659 70.357330,47.039917 
	C70.301933,47.466858 70.246536,47.893799 70.132812,48.910431 
	C70.146530,49.678005 70.218582,49.855892 70.290634,50.033775 
	C66.888054,50.347145 63.485466,50.660515 59.597855,50.607056 
	C58.987713,49.822029 58.862595,49.403835 58.737480,48.985641 
	C58.804955,48.810841 58.872429,48.636044 59.087471,48.222038 
z"/>
<path fill="#EEEFF5" opacity="1.000000" stroke="none" 
	d="
M115.417297,20.083153 
	C111.389389,17.860401 108.783539,18.616493 107.505554,23.659222 
	C106.611862,22.854376 105.831520,21.667553 105.051178,20.480734 
	C106.484657,19.654936 107.905991,18.184673 109.354538,18.157351 
	C111.425461,18.118288 113.516296,19.134808 115.417297,20.083153 
z"/>
<path fill="#F1F1F4" opacity="1.000000" stroke="none" 
	d="
M51.758881,41.108410 
	C50.861156,40.316513 50.385044,39.490734 49.839066,38.382328 
	C51.255737,37.332806 52.742283,36.565914 54.228828,35.799023 
	C52.645527,36.765762 58.105412,39.717857 51.758881,41.108410 
z"/>
<path fill="#E9E8F1" opacity="1.000000" stroke="none" 
	d="
M165.075195,47.953232 
	C166.776886,48.479469 168.411346,49.339115 170.307709,50.431046 
	C168.432297,51.052277 166.294952,51.441231 163.338394,51.979271 
	C164.274384,49.909126 164.641174,49.097881 165.075195,47.953232 
z"/>
<path fill="#EEEFF5" opacity="1.000000" stroke="none" 
	d="
M107.038803,46.964039 
	C107.468376,47.203934 107.575569,47.460831 107.796600,48.115757 
	C107.910431,48.513783 107.881584,48.499607 107.881592,48.499607 
	C107.868385,49.057072 107.855179,49.614532 107.919861,50.582844 
	C106.839355,50.655399 105.680962,50.317104 104.522568,49.978813 
	C105.253853,48.979553 105.985146,47.980301 107.038803,46.964039 
z"/>
<path fill="#CBCCE3" opacity="1.000000" stroke="none" 
	d="
M74.988861,39.562981 
	C76.943504,39.145679 78.981812,39.090134 81.437653,38.898659 
	C80.049324,41.806072 77.730270,41.853874 74.988861,39.562981 
z"/>
<path fill="#C7C5DC" opacity="1.000000" stroke="none" 
	d="
M220.642120,30.401367 
	C220.732101,31.894718 220.561737,33.223068 219.989410,34.768318 
	C219.587448,34.985218 219.093674,34.912926 219.093689,34.912926 
	C219.523041,33.354076 219.952393,31.795223 220.642120,30.401367 
z"/>
<path fill="#3C346C" opacity="1.000000" stroke="none" 
	d="
M176.633377,30.179012 
	C175.473602,30.695545 173.957901,31.109688 172.392151,31.115690 
	C172.342102,30.707552 172.595032,30.308531 172.595032,30.308529 
	C173.822495,30.231226 175.049973,30.153923 176.633377,30.179012 
z"/>
<path fill="#E9E8F1" opacity="1.000000" stroke="none" 
	d="
M167.035675,31.861990 
	C166.552612,32.768692 166.047699,33.307835 165.271423,33.922836 
	C165.084763,32.560123 165.169479,31.121553 165.342026,28.191299 
	C166.329651,30.142643 166.671738,30.818539 167.035675,31.861990 
z"/>
<path fill="#E1E0EC" opacity="1.000000" stroke="none" 
	d="
M99.476662,42.954285 
	C99.069595,41.937943 98.991417,40.851402 99.031189,39.370014 
	C99.367950,40.278141 99.586746,41.581116 99.476662,42.954285 
z"/>
<path fill="#E1E0EC" opacity="1.000000" stroke="none" 
	d="
M100.325157,49.010899 
	C99.937790,48.238022 99.906685,47.489899 99.938232,46.369663 
	C100.898232,46.549862 101.795555,47.102169 102.692886,47.654472 
	C102.022400,48.114864 101.351906,48.575256 100.325157,49.010899 
z"/>
<path fill="#CBCCE3" opacity="1.000000" stroke="none" 
	d="
M70.734276,38.078995 
	C70.831459,34.821655 72.228020,35.451733 73.973572,37.624695 
	C73.060806,38.003834 72.081154,38.026009 70.734276,38.078995 
z"/>
<path fill="#C7C5DC" opacity="1.000000" stroke="none" 
	d="
M219.790588,45.209515 
	C220.161560,46.446358 220.256989,47.908882 220.216187,49.674782 
	C219.891663,48.463837 219.703339,46.949516 219.790588,45.209515 
z"/>
<path fill="#34306A" opacity="1.000000" stroke="none" 
	d="
M61.599159,30.706680 
	C61.281231,31.570198 60.581566,32.289719 59.535210,33.016396 
	C59.864815,32.203259 60.541115,31.382973 61.599159,30.706680 
z"/>
<path fill="#E9E8F1" opacity="1.000000" stroke="none" 
	d="
M134.223053,51.360741 
	C134.708801,50.884087 135.411377,50.634041 136.428009,50.177044 
	C136.991226,50.439873 137.240356,50.909660 137.489502,51.379444 
	C136.472961,51.448746 135.456421,51.518051 134.223053,51.360741 
z"/>
<path fill="#3C346C" opacity="1.000000" stroke="none" 
	d="
M184.902649,32.654015 
	C183.536865,32.468025 181.999084,31.967905 180.239441,31.207016 
	C181.588608,31.410793 183.159622,31.875338 184.902649,32.654015 
z"/>
<path fill="#E9E8F1" opacity="1.000000" stroke="none" 
	d="
M150.244125,27.350380 
	C151.392929,27.065401 152.780518,27.033316 154.581329,27.055370 
	C153.490662,27.274101 151.986786,27.438688 150.244125,27.350380 
z"/>
<path fill="#EEEFF5" opacity="1.000000" stroke="none" 
	d="
M96.715744,23.490162 
	C95.591858,23.772619 94.214287,23.838947 92.433296,23.805439 
	C93.507271,23.561743 94.984673,23.417885 96.715744,23.490162 
z"/>
<path fill="#EBEBF3" opacity="1.000000" stroke="none" 
	d="
M218.956604,35.202240 
	C219.093674,34.912926 219.587448,34.985218 219.836365,35.002598 
	C220.127289,35.775650 220.169312,36.531322 220.086990,37.646286 
	C219.581604,37.167568 219.200577,36.329559 218.956604,35.202240 
z"/>
<path fill="#3C346C" opacity="1.000000" stroke="none" 
	d="
M186.752670,34.977829 
	C186.547287,36.050484 186.162491,37.074348 185.479919,38.252975 
	C185.315506,37.399147 185.448914,36.390549 185.892136,35.145805 
	C186.201950,34.909657 186.573273,34.929043 186.752670,34.977829 
z"/>
<path fill="#E1E0EC" opacity="1.000000" stroke="none" 
	d="
M99.398964,36.860020 
	C99.507629,36.000523 99.881668,34.994408 100.638306,34.054062 
	C100.568726,34.984356 100.116531,35.848881 99.398964,36.860020 
z"/>
<path fill="#C7C5DC" opacity="1.000000" stroke="none" 
	d="
M219.160187,43.195004 
	C219.242828,42.402054 219.427582,41.840950 219.871826,41.124077 
	C220.214615,41.825253 220.297958,42.682198 220.226379,43.761501 
	C219.801743,43.798187 219.532028,43.612518 219.160187,43.195004 
z"/>
<path fill="#EEEFF5" opacity="1.000000" stroke="none" 
	d="
M131.997894,14.002751 
	C132.738098,14.055677 133.478317,14.108603 134.218521,14.161530 
	C134.147354,14.515459 134.076202,14.869388 134.005035,15.223317 
	C133.277344,14.985143 132.549652,14.746969 131.910980,14.254397 
	C132.000000,14.000000 131.997894,14.002751 131.997894,14.002751 
z"/>
<path fill="#C7C5DC" opacity="1.000000" stroke="none" 
	d="
M231.860931,30.745777 
	C231.408661,31.079617 230.825790,31.190750 230.138733,31.053333 
	C230.599823,30.710880 231.165070,30.616976 231.860931,30.745777 
z"/>
<path fill="#34306A" opacity="1.000000" stroke="none" 
	d="
M68.978256,33.024612 
	C68.280594,32.584641 67.681374,32.049389 67.049103,31.189072 
	C67.684387,31.021833 68.352722,31.179663 69.176697,31.818642 
	C69.332336,32.299789 69.274452,32.739700 69.274452,32.739700 
	C69.274452,32.739700 69.076691,32.929333 68.978256,33.024612 
z"/>
<path fill="#E9E8F1" opacity="1.000000" stroke="none" 
	d="
M127.230972,51.365532 
	C128.073441,51.078949 129.141159,51.022839 130.602570,51.052277 
	C129.816238,51.290550 128.636230,51.443279 127.230972,51.365532 
z"/>
<path fill="#E9E8F1" opacity="1.000000" stroke="none" 
	d="
M156.149307,26.930977 
	C156.320023,26.322012 156.836594,25.732895 157.677948,25.075565 
	C157.500229,25.655176 156.997696,26.302999 156.149307,26.930977 
z"/>
<path fill="#E9E8F1" opacity="1.000000" stroke="none" 
	d="
M178.270874,51.524006 
	C179.082581,51.190052 180.141205,51.063168 181.599243,50.981159 
	C180.838379,51.261047 179.678085,51.496059 178.270874,51.524006 
z"/>
<path fill="#E9E8F1" opacity="1.000000" stroke="none" 
	d="
M151.199829,51.360626 
	C151.754791,51.087658 152.506653,51.033146 153.627594,51.067890 
	C153.130020,51.297787 152.263367,51.438435 151.199829,51.360626 
z"/>
<path fill="#E9E8F1" opacity="1.000000" stroke="none" 
	d="
M173.187012,51.354233 
	C173.753418,51.126804 174.503998,51.121456 175.615356,51.225136 
	C175.107819,51.414883 174.239517,51.495598 173.187012,51.354233 
z"/>
<path fill="#D5D5E6" opacity="1.000000" stroke="none" 
	d="
M53.876522,45.897308 
	C53.471287,45.771358 53.090420,45.301487 52.658470,44.519184 
	C53.038555,44.655632 53.469723,45.104507 53.876522,45.897308 
z"/>
<path fill="#343267" opacity="1.000000" stroke="none" 
	d="
M157.774323,30.845139 
	C158.080917,31.145905 158.037338,31.332088 157.860962,31.772495 
	C157.229553,31.807884 156.730972,31.589048 156.112305,31.115332 
	C156.469528,30.817152 156.946838,30.773855 157.774323,30.845139 
z"/>
<path fill="#3B3975" opacity="1.000000" stroke="none" 
	d="
M148.679199,45.004280 
	C148.553818,45.342529 148.127655,45.657856 147.422089,45.994072 
	C147.080032,45.839584 147.017349,45.664207 147.063477,45.231529 
	C147.574310,44.976604 147.976349,44.978981 148.679199,45.004280 
z"/>
<path fill="#D5D5E6" opacity="1.000000" stroke="none" 
	d="
M58.533768,49.168674 
	C58.862595,49.403835 58.987713,49.822029 59.156757,50.566978 
	C58.910473,50.379719 58.620266,49.865715 58.533768,49.168674 
z"/>
<path fill="#EBEBF3" opacity="1.000000" stroke="none" 
	d="
M183.004715,50.898151 
	C183.229645,50.571133 183.789612,50.290215 184.674072,50.008530 
	C184.445633,50.319927 183.892700,50.632088 183.004715,50.898151 
z"/>
<path fill="#E1E0EC" opacity="1.000000" stroke="none" 
	d="
M107.004501,35.071373 
	C106.957001,34.526802 107.056297,34.023819 107.306389,33.314663 
	C107.552551,33.552662 107.647919,33.996838 107.598503,34.756721 
	C107.453728,35.072437 107.151291,35.112965 107.004501,35.071373 
z"/>
<path fill="#D5D5E6" opacity="1.000000" stroke="none" 
	d="
M69.547676,32.787968 
	C69.274452,32.739700 69.332336,32.299789 69.421997,32.096733 
	C69.892944,31.941011 70.274223,31.988348 70.921494,32.153702 
	C70.731956,32.459892 70.276428,32.648064 69.547676,32.787968 
z"/>
<path fill="#EEEFF5" opacity="1.000000" stroke="none" 
	d="
M132.776657,17.619230 
	C132.301712,17.845514 131.932693,17.879061 131.285553,17.890499 
	C131.500961,17.579102 131.994476,17.289812 132.788116,17.019075 
	C133.088211,17.037626 132.882599,17.426491 132.776657,17.619230 
z"/>
<path fill="#343267" opacity="1.000000" stroke="none" 
	d="
M152.684784,30.722813 
	C152.430923,31.033079 151.850708,31.202694 151.128387,31.129345 
	C151.443680,30.784973 151.901031,30.683567 152.684784,30.722813 
z"/>
<path fill="#D5D5E6" opacity="1.000000" stroke="none" 
	d="
M72.861908,31.083036 
	C72.729912,31.486250 72.266327,31.854212 71.501724,32.248856 
	C71.643913,31.866291 72.087120,31.457039 72.861908,31.083036 
z"/>
<path fill="#E1E0EC" opacity="1.000000" stroke="none" 
	d="
M126.034325,23.003647 
	C126.070648,23.167376 126.106979,23.331106 126.189095,23.742191 
	C126.071411,24.296093 125.907936,24.602640 125.549850,25.083948 
	C125.237091,24.762609 125.118950,24.266508 125.259674,23.382908 
	C125.690475,22.998154 125.862396,23.000900 126.034325,23.003647 
z"/>
<path fill="#E9E8F1" opacity="1.000000" stroke="none" 
	d="
M148.161240,51.352726 
	C148.450073,51.105518 148.894058,51.054943 149.667664,51.077332 
	C149.436981,51.283314 148.876694,51.416336 148.161240,51.352726 
z"/>
<path fill="#C7C5DC" opacity="1.000000" stroke="none" 
	d="
M221.079651,51.147545 
	C221.186722,50.945786 221.357193,50.915779 221.770081,50.978546 
	C221.722672,51.153984 221.432861,51.236641 221.079651,51.147545 
z"/>
<path fill="#EBEBF3" opacity="1.000000" stroke="none" 
	d="
M207.105103,51.378838 
	C207.166092,51.176250 207.328232,51.112324 207.745148,51.106865 
	C207.735367,51.282719 207.470810,51.400105 207.105103,51.378838 
z"/>
<path fill="#EBEBF3" opacity="1.000000" stroke="none" 
	d="
M201.089142,51.370556 
	C201.169693,51.186466 201.338058,51.148052 201.747864,51.203484 
	C201.718521,51.370300 201.447754,51.443268 201.089142,51.370556 
z"/>
<path fill="#CBCCE3" opacity="1.000000" stroke="none" 
	d="
M70.456146,49.942741 
	C70.218582,49.855892 70.146530,49.678005 70.175720,49.230606 
	C70.391869,49.257961 70.506767,49.554832 70.456146,49.942741 
z"/>
<path fill="#E9E8F1" opacity="1.000000" stroke="none" 
	d="
M156.093933,51.294357 
	C156.164169,51.093979 156.330856,51.040512 156.748489,51.064144 
	C156.729752,51.241249 156.460068,51.341259 156.093933,51.294357 
z"/>
<path fill="#E8E8F1" opacity="1.000000" stroke="none" 
	d="
M52.094833,51.309464 
	C52.163734,51.114048 52.330276,51.062710 52.749123,51.079674 
	C52.731773,51.249832 52.462124,51.351685 52.094833,51.309464 
z"/>
<path fill="#EBEBF3" opacity="1.000000" stroke="none" 
	d="
M193.160309,48.990456 
	C193.410812,48.836216 193.829453,49.001862 194.455261,49.441952 
	C194.217743,49.581039 193.773102,49.445686 193.160309,48.990456 
z"/>
<path fill="#E9E8F1" opacity="1.000000" stroke="none" 
	d="
M136.886871,35.138771 
	C136.667679,35.171070 136.515518,34.950569 136.437836,34.706367 
	C136.409470,34.617252 136.558197,34.471790 136.830826,34.336143 
	C137.018127,34.505703 137.000763,34.691143 136.886871,35.138771 
z"/>
<path fill="#D5D5E6" opacity="1.000000" stroke="none" 
	d="
M55.828644,50.792843 
	C55.614895,50.773342 55.519772,50.448490 55.606483,50.303181 
	C55.915016,50.282608 56.136837,50.407349 56.358658,50.532089 
	C56.253239,50.625507 56.147816,50.718925 55.828644,50.792843 
z"/>
<path fill="#EBEBF3" opacity="1.000000" stroke="none" 
	d="
M210.129761,50.395523 
	C210.169357,50.207458 210.332825,50.163101 210.739075,50.043941 
	C210.739136,50.159168 210.496384,50.349197 210.129761,50.395523 
z"/>
<path fill="#EEEFF5" opacity="1.000000" stroke="none" 
	d="
M132.001358,13.998932 
	C131.879974,13.855703 131.757248,13.713542 131.634506,13.571381 
	C131.720764,13.621463 131.807037,13.671545 131.945587,13.862188 
	C131.997894,14.002751 132.000000,14.000000 132.001358,13.998932 
z"/>
<path fill="#EEEFF5" opacity="1.000000" stroke="none" 
	d="
M130.067841,18.179628 
	C130.097839,18.422783 129.843933,18.700800 129.297943,18.997602 
	C129.265228,18.749088 129.524597,18.481789 130.067841,18.179628 
z"/>
<path fill="#E9E8F1" opacity="1.000000" stroke="none" 
	d="
M158.479004,21.857471 
	C158.233124,21.836496 158.115906,21.692858 158.033569,21.273312 
	C158.248184,21.243206 158.427948,21.489006 158.479004,21.857471 
z"/>
<path fill="#EEEFF5" opacity="1.000000" stroke="none" 
	d="
M126.201843,22.820951 
	C125.862396,23.000900 125.690475,22.998154 125.260674,22.997709 
	C125.269691,22.736670 125.536591,22.473328 126.088814,22.176262 
	C126.374146,22.142536 126.369370,22.638256 126.201843,22.820951 
z"/>
<path fill="#EEEFF5" opacity="1.000000" stroke="none" 
	d="
M88.881607,23.550489 
	C88.824677,23.757919 88.667618,23.827637 88.259209,23.840359 
	C88.265732,23.659834 88.523605,23.536304 88.881607,23.550489 
z"/>
<path fill="#E1E0EC" opacity="1.000000" stroke="none" 
	d="
M99.922455,29.912865 
	C99.653198,29.973448 99.333542,29.786812 99.081787,29.295166 
	C99.390480,29.215321 99.631264,29.440485 99.922455,29.912865 
z"/>
<path fill="#E9E8F1" opacity="1.000000" stroke="none" 
	d="
M172.297272,30.258808 
	C172.595032,30.308531 172.342102,30.707552 172.173218,30.872753 
	C171.835526,31.008999 171.666702,30.980040 171.249359,30.885864 
	C171.333740,30.616796 171.666611,30.412941 172.297272,30.258808 
z"/>
<path fill="#E9E8F1" opacity="1.000000" stroke="none" 
	d="
M141.464722,35.447414 
	C141.522491,35.412506 141.406952,35.482323 141.464722,35.447414 
z"/>
<path fill="#EBEBF3" opacity="1.000000" stroke="none" 
	d="
M216.361252,37.867386 
	C216.105072,37.845055 215.994934,37.698853 215.893967,37.278229 
	C216.104523,37.250374 216.305908,37.496944 216.361252,37.867386 
z"/>
<path fill="#D5D5E6" opacity="1.000000" stroke="none" 
	d="
M58.637794,44.067795 
	C58.883434,44.153622 58.961735,44.327007 58.922356,44.760399 
	C58.644482,44.847649 58.461571,44.689293 58.337627,44.493584 
	C58.299339,44.433132 58.421673,44.270950 58.637794,44.067795 
z"/>
<path fill="#D5D5E6" opacity="1.000000" stroke="none" 
	d="
M56.532082,45.533852 
	C56.490860,45.555138 56.573307,45.512562 56.532082,45.533852 
z"/>
<path fill="#CBCCE3" opacity="1.000000" stroke="none" 
	d="
M70.516716,46.934334 
	C70.267738,46.855659 70.178154,46.671402 70.196793,46.199532 
	C70.428711,46.217529 70.552406,46.523140 70.516716,46.934334 
z"/>
<path fill="#E8E8F1" opacity="1.000000" stroke="none" 
	d="
M22.604403,47.103180 
	C22.689013,47.289345 22.589518,47.583488 22.232052,47.899834 
	C22.035463,47.630238 22.184202,47.393276 22.604403,47.103180 
z"/>
<path fill="#DFE0F2" opacity="1.000000" stroke="none" 
	d="
M31.787874,36.830292 
	C32.619232,35.672031 33.216942,34.806442 34.314980,33.216297 
	C35.676285,36.279560 36.687428,38.554878 38.269463,42.114834 
	C35.094173,41.792320 33.000626,41.579681 30.907082,41.367043 
	C31.122797,39.952351 31.338511,38.537655 31.787874,36.830292 
z"/>
<path fill="#DBD9EB" opacity="1.000000" stroke="none" 
	d="
M201.818451,39.356499 
	C201.888885,37.594769 202.339691,35.856411 202.790497,34.118053 
	C204.275742,35.232079 205.761017,36.346104 207.246277,37.460129 
	C206.977844,37.879616 206.709412,38.299099 206.440964,38.718582 
	C205.026917,38.939011 203.612854,39.159439 201.818451,39.356499 
z"/>
<path fill="#FEFEFE" opacity="1.000000" stroke="none" 
	d="
M210.664047,41.932526 
	C210.458069,43.244186 209.911957,44.520370 209.365845,45.796555 
	C209.135132,44.796753 208.904404,43.796955 208.831848,42.486931 
	C209.434631,42.083488 209.879272,41.990269 210.664047,41.932526 
z"/>
<path fill="#FEFEFE" opacity="1.000000" stroke="none" 
	d="
M196.406616,31.568134 
	C196.306839,31.322746 196.494766,31.011913 196.840027,30.848698 
	C196.896362,31.165106 196.795349,31.333899 196.406616,31.568134 
z"/>
<path fill="#FEFEFE" opacity="1.000000" stroke="none" 
	d="
M123.991898,28.993263 
	C124.111328,28.359430 124.230759,27.725597 124.634872,27.050316 
	C124.983513,27.450373 125.047470,27.891878 124.790619,28.652225 
	C124.469818,28.971064 123.991898,28.993263 123.991898,28.993263 
z"/>
<path fill="#E9E8F1" opacity="1.000000" stroke="none" 
	d="
M125.076859,35.688202 
	C124.650635,35.580441 124.333328,35.163895 123.998848,34.472622 
	C124.383041,34.591732 124.784409,34.985573 125.076859,35.688202 
z"/>
<path fill="#E1E0EC" opacity="1.000000" stroke="none" 
	d="
M124.000656,29.309834 
	C123.991898,28.993263 124.469818,28.971064 124.708832,28.979637 
	C124.859749,29.369419 124.771660,29.750628 124.367462,30.195118 
	C124.037376,30.047731 124.023399,29.837069 124.000656,29.309834 
z"/>
<path fill="#E9E8F1" opacity="1.000000" stroke="none" 
	d="
M125.016731,48.752686 
	C124.734169,48.822018 124.559647,48.661644 124.436348,48.468563 
	C124.406731,48.422169 124.547142,48.267193 124.775970,48.082771 
	C125.009567,48.172585 125.076569,48.341782 125.016731,48.752686 
z"/>
<path fill="#3C346C" opacity="1.000000" stroke="none" 
	d="
M184.046143,39.140335 
	C183.455215,39.310062 182.452499,39.428028 181.301453,39.243290 
	C181.980194,38.989914 182.807266,39.039242 184.046143,39.140335 
z"/>
<path fill="#E1E0EC" opacity="1.000000" stroke="none" 
	d="
M108.044037,48.621307 
	C107.881584,48.499607 107.910431,48.513783 107.896408,48.521202 
	C107.992096,48.450768 108.101143,48.313198 108.211731,48.311935 
	C108.321175,48.310684 108.432190,48.447002 108.542511,48.522980 
	C108.430496,48.596321 108.318489,48.669662 108.044037,48.621307 
z"/>
<path fill="#3B3975" opacity="1.000000" stroke="none" 
	d="
M153.947601,46.682007 
	C152.958328,46.588730 151.989609,46.157749 151.022034,45.402412 
	C152.004837,45.500145 152.986481,45.922222 153.947601,46.682007 
z"/>
<path fill="#343267" opacity="1.000000" stroke="none" 
	d="
M157.537674,33.990807 
	C157.831802,34.148594 157.901932,34.322964 157.875610,34.762299 
	C157.404602,34.856094 157.030029,34.684925 156.655457,34.513756 
	C156.874863,34.344967 157.094254,34.176178 157.537674,33.990807 
z"/>
<path fill="#343267" opacity="1.000000" stroke="none" 
	d="
M157.622070,39.092617 
	C157.835480,39.167595 157.899353,39.333549 157.869110,39.749153 
	C157.674179,39.727062 157.573364,39.455330 157.622070,39.092617 
z"/>
<path fill="#FEFEFE" opacity="1.000000" stroke="none" 
	d="
M105.447052,27.532377 
	C105.412979,27.475857 105.481133,27.588898 105.447052,27.532377 
z"/>
<path fill="#FEFEFE" opacity="1.000000" stroke="none" 
	d="
M214.999619,46.000420 
	C214.422928,45.281021 213.846619,44.561203 213.270325,43.841389 
	C213.814896,43.627560 214.359482,43.413731 214.904053,43.199898 
	C214.953903,43.920036 215.003738,44.640171 215.027222,45.679710 
	C215.000839,45.999115 215.000000,46.000000 214.999619,46.000420 
z"/>
</svg>